<?xml version="1.0" encoding="UTF-8"?>
<svg width="128" height="128" viewBox="0 0 128 128" xmlns="http://www.w3.org/2000/svg" role="img" aria-label="Imarika Logo">
  <defs>
    <linearGradient id="g" x1="0" y1="0" x2="1" y2="1">
      <stop offset="0" stop-color="#FDE68A"/>
      <stop offset="1" stop-color="#F59E0B"/>
    </linearGradient>
    <filter id="s" x="-20%" y="-20%" width="140%" height="140%">
      <feDropShadow dx="0" dy="2" stdDeviation="3" flood-color="#000" flood-opacity=".12"/>
    </filter>
  </defs>
  <!-- Shield -->
  <path filter="url(#s)" d="M64 12l40 12v34c0 24.3-17.1 46.2-40 54-22.9-7.8-40-29.7-40-54V24l40-12z" fill="url(#g)"/>
  <!-- Seed/leaf -->
  <path d="M64 90c14-10 22-24 22-38 0-10-6-18-14-18-5 0-9 3-8 10 1 8-4 16-15 22-7 4-11 9-11 16 0 6 5 12 12 12 5 0 10-2 14-4z"
        fill="#0F172A" opacity=".9"/>
  <!-- Dot -->
  <circle cx="72" cy="40" r="5" fill="#0F172A" opacity=".9"/>
</svg>
